<?xml version="1.0" encoding="UTF-8" standalone="no"?>
<!DOCTYPE svg PUBLIC "-//W3C//DTD SVG 1.1//EN"
 "http://www.w3.org/Graphics/SVG/1.1/DTD/svg11.dtd">
<!-- Generated by graphviz version 12.2.1 (20241206.2353)
 -->
<!-- Title: plug_connect_workflow Pages: 1 -->
<svg width="947pt" height="125pt"
 viewBox="0.00 0.00 947.20 125.12" xmlns="http://www.w3.org/2000/svg" xmlns:xlink="http://www.w3.org/1999/xlink">
<g id="graph0" class="graph" transform="scale(1 1) rotate(0) translate(4 121.12)">
<title>plug_connect_workflow</title>
<polygon fill="white" stroke="none" points="-4,4 -4,-121.12 943.2,-121.12 943.2,4 -4,4"/>
<!-- plug -->
<g id="node1" class="node">
<title>plug</title>
<path fill="#f6f6f6" stroke="black" d="M330.5,-105.25C330.5,-105.25 223,-105.25 223,-105.25 217,-105.25 211,-99.25 211,-93.25 211,-93.25 211,-81.25 211,-81.25 211,-75.25 217,-69.25 223,-69.25 223,-69.25 330.5,-69.25 330.5,-69.25 336.5,-69.25 342.5,-75.25 342.5,-81.25 342.5,-81.25 342.5,-93.25 342.5,-93.25 342.5,-99.25 336.5,-105.25 330.5,-105.25"/>
<text text-anchor="middle" x="276.75" y="-82.58" font-family="Times,serif" font-size="14.00">pysnap plug VM</text>
</g>
<!-- modifyvm -->
<g id="node2" class="node">
<title>modifyvm</title>
<path fill="#f6f6f6" stroke="black" d="M606.75,-117.12C606.75,-117.12 410,-117.12 410,-117.12 404,-117.12 398,-111.12 398,-105.12 398,-105.12 398,-69.38 398,-69.38 398,-63.38 404,-57.38 410,-57.38 410,-57.38 606.75,-57.38 606.75,-57.38 612.75,-57.38 618.75,-63.38 618.75,-69.38 618.75,-69.38 618.75,-105.12 618.75,-105.12 618.75,-111.12 612.75,-117.12 606.75,-117.12"/>
<text text-anchor="middle" x="508.38" y="-99.83" font-family="Times,serif" font-size="14.00">VBoxManage modifyvm</text>
<text text-anchor="middle" x="508.38" y="-82.58" font-family="Times,serif" font-size="14.00">&#45;&#45;uart1 0x3F8 4</text>
<text text-anchor="middle" x="508.38" y="-65.33" font-family="Times,serif" font-size="14.00">&#45;&#45;uartmode1 tcpserver PORT</text>
</g>
<!-- plug&#45;&gt;modifyvm -->
<g id="edge1" class="edge">
<title>plug&#45;&gt;modifyvm</title>
<path fill="none" stroke="black" d="M342.94,-87.25C356.57,-87.25 371.35,-87.25 386.28,-87.25"/>
<polygon fill="black" stroke="black" points="386.19,-90.75 396.19,-87.25 386.19,-83.75 386.19,-90.75"/>
</g>
<!-- vm -->
<g id="node3" class="node">
<title>vm</title>
<ellipse fill="#fff8dc" stroke="black" cx="796.98" cy="-54.25" rx="142.23" ry="18"/>
<text text-anchor="middle" x="796.98" y="-49.58" font-family="Times,serif" font-size="14.00">VM with UART1 tcpserver</text>
</g>
<!-- modifyvm&#45;&gt;vm -->
<g id="edge2" class="edge">
<title>modifyvm&#45;&gt;vm</title>
<path fill="none" stroke="black" d="M618.95,-74.63C638.59,-72.37 659.13,-70.01 678.97,-67.72"/>
<polygon fill="black" stroke="black" points="679.2,-71.22 688.73,-66.6 678.4,-64.26 679.2,-71.22"/>
</g>
<!-- connect -->
<g id="node4" class="node">
<title>connect</title>
<path fill="#f6f6f6" stroke="black" d="M143.5,-39.25C143.5,-39.25 12,-39.25 12,-39.25 6,-39.25 0,-33.25 0,-27.25 0,-27.25 0,-15.25 0,-15.25 0,-9.25 6,-3.25 12,-3.25 12,-3.25 143.5,-3.25 143.5,-3.25 149.5,-3.25 155.5,-9.25 155.5,-15.25 155.5,-15.25 155.5,-27.25 155.5,-27.25 155.5,-33.25 149.5,-39.25 143.5,-39.25"/>
<text text-anchor="middle" x="77.75" y="-16.57" font-family="Times,serif" font-size="14.00">pysnap connect VM</text>
</g>
<!-- headless -->
<g id="node5" class="node">
<title>headless</title>
<path fill="#f6f6f6" stroke="black" d="M350,-42.5C350,-42.5 203.5,-42.5 203.5,-42.5 197.5,-42.5 191.5,-36.5 191.5,-30.5 191.5,-30.5 191.5,-12 191.5,-12 191.5,-6 197.5,0 203.5,0 203.5,0 350,0 350,0 356,0 362,-6 362,-12 362,-12 362,-30.5 362,-30.5 362,-36.5 356,-42.5 350,-42.5"/>
<text text-anchor="middle" x="276.75" y="-25.2" font-family="Times,serif" font-size="14.00">VBoxManage startvm</text>
<text text-anchor="middle" x="276.75" y="-7.95" font-family="Times,serif" font-size="14.00">&#45;&#45;type=headless</text>
</g>
<!-- connect&#45;&gt;headless -->
<g id="edge3" class="edge">
<title>connect&#45;&gt;headless</title>
<path fill="none" stroke="black" d="M155.76,-21.25C163.68,-21.25 171.8,-21.25 179.89,-21.25"/>
<polygon fill="black" stroke="black" points="179.78,-24.75 189.78,-21.25 179.78,-17.75 179.78,-24.75"/>
</g>
<!-- terminal -->
<g id="node6" class="node">
<title>terminal</title>
<path fill="#f6f6f6" stroke="black" d="M592.5,-39.25C592.5,-39.25 424.25,-39.25 424.25,-39.25 418.25,-39.25 412.25,-33.25 412.25,-27.25 412.25,-27.25 412.25,-15.25 412.25,-15.25 412.25,-9.25 418.25,-3.25 424.25,-3.25 424.25,-3.25 592.5,-3.25 592.5,-3.25 598.5,-3.25 604.5,-9.25 604.5,-15.25 604.5,-15.25 604.5,-27.25 604.5,-27.25 604.5,-33.25 598.5,-39.25 592.5,-39.25"/>
<text text-anchor="middle" x="508.38" y="-16.57" font-family="Times,serif" font-size="14.00">PySnap terminal session</text>
</g>
<!-- headless&#45;&gt;terminal -->
<g id="edge4" class="edge">
<title>headless&#45;&gt;terminal</title>
<path fill="none" stroke="black" d="M362.28,-21.25C374.74,-21.25 387.71,-21.25 400.55,-21.25"/>
<polygon fill="black" stroke="black" points="400.27,-24.75 410.27,-21.25 400.27,-17.75 400.27,-24.75"/>
</g>
<!-- terminal&#45;&gt;vm -->
<g id="edge5" class="edge">
<title>terminal&#45;&gt;vm</title>
<path fill="none" stroke="black" d="M604.81,-32.24C628.53,-34.97 654.23,-37.93 678.86,-40.77"/>
<polygon fill="black" stroke="black" points="678.26,-44.22 688.59,-41.89 679.06,-37.26 678.26,-44.22"/>
</g>
</g>
</svg>
