<?xml version="1.0" encoding="UTF-8" standalone="no"?>
<!DOCTYPE svg PUBLIC "-//W3C//DTD SVG 1.1//EN"
 "http://www.w3.org/Graphics/SVG/1.1/DTD/svg11.dtd">
<!-- Generated by graphviz version 12.2.1 (20241206.2353)
 -->
<!-- Title: package_relationships Pages: 1 -->
<svg width="883pt" height="162pt"
 viewBox="0.00 0.00 883.25 162.00" xmlns="http://www.w3.org/2000/svg" xmlns:xlink="http://www.w3.org/1999/xlink">
<g id="graph0" class="graph" transform="scale(1 1) rotate(0) translate(4 158)">
<title>package_relationships</title>
<polygon fill="white" stroke="none" points="-4,4 -4,-158 879.25,-158 879.25,4 -4,4"/>
<!-- cli -->
<g id="node1" class="node">
<title>cli</title>
<path fill="#f6f6f6" stroke="black" d="M76,-71C76,-71 12,-71 12,-71 6,-71 0,-65 0,-59 0,-59 0,-47 0,-47 0,-41 6,-35 12,-35 12,-35 76,-35 76,-35 82,-35 88,-41 88,-47 88,-47 88,-59 88,-59 88,-65 82,-71 76,-71"/>
<text text-anchor="middle" x="44" y="-48.33" font-family="Times,serif" font-size="14.00">pysnap.cli</text>
</g>
<!-- core -->
<g id="node3" class="node">
<title>core</title>
<path fill="#f6f6f6" stroke="black" d="M524.75,-98C524.75,-98 446.5,-98 446.5,-98 440.5,-98 434.5,-92 434.5,-86 434.5,-86 434.5,-74 434.5,-74 434.5,-68 440.5,-62 446.5,-62 446.5,-62 524.75,-62 524.75,-62 530.75,-62 536.75,-68 536.75,-74 536.75,-74 536.75,-86 536.75,-86 536.75,-92 530.75,-98 524.75,-98"/>
<text text-anchor="middle" x="485.62" y="-75.33" font-family="Times,serif" font-size="14.00">pysnap.core</text>
</g>
<!-- cli&#45;&gt;core -->
<g id="edge1" class="edge">
<title>cli&#45;&gt;core</title>
<path fill="none" stroke="black" d="M88.5,-63.23C94.35,-64.32 100.3,-65.29 106,-66 217.14,-79.79 347.92,-81.43 423.06,-80.98"/>
<polygon fill="black" stroke="black" points="422.7,-84.49 432.67,-80.91 422.64,-77.49 422.7,-84.49"/>
<text text-anchor="middle" x="246.62" y="-83.84" font-family="Times,serif" font-size="14.00">command dispatch</text>
</g>
<!-- terminal -->
<g id="node5" class="node">
<title>terminal</title>
<path fill="#f6f6f6" stroke="black" d="M300.75,-44C300.75,-44 192.5,-44 192.5,-44 186.5,-44 180.5,-38 180.5,-32 180.5,-32 180.5,-20 180.5,-20 180.5,-14 186.5,-8 192.5,-8 192.5,-8 300.75,-8 300.75,-8 306.75,-8 312.75,-14 312.75,-20 312.75,-20 312.75,-32 312.75,-32 312.75,-38 306.75,-44 300.75,-44"/>
<text text-anchor="middle" x="246.62" y="-21.32" font-family="Times,serif" font-size="14.00">pysnap.terminal</text>
</g>
<!-- cli&#45;&gt;terminal -->
<g id="edge2" class="edge">
<title>cli&#45;&gt;terminal</title>
<path fill="none" stroke="black" d="M88.04,-47.21C111.62,-44.03 141.54,-40.01 168.97,-36.32"/>
<polygon fill="black" stroke="black" points="169.2,-39.82 178.64,-35.01 168.26,-32.88 169.2,-39.82"/>
<text text-anchor="middle" x="133.75" y="-48.22" font-family="Times,serif" font-size="14.00">connect</text>
</g>
<!-- config -->
<g id="node2" class="node">
<title>config</title>
<path fill="#f6f6f6" stroke="black" d="M856.12,-100C856.12,-100 765.88,-100 765.88,-100 759.88,-100 753.88,-94 753.88,-88 753.88,-88 753.88,-76 753.88,-76 753.88,-70 759.88,-64 765.88,-64 765.88,-64 856.12,-64 856.12,-64 862.12,-64 868.12,-70 868.12,-76 868.12,-76 868.12,-88 868.12,-88 868.12,-94 862.12,-100 856.12,-100"/>
<text text-anchor="middle" x="811" y="-77.33" font-family="Times,serif" font-size="14.00">pysnap.config</text>
</g>
<!-- core&#45;&gt;config -->
<g id="edge3" class="edge">
<title>core&#45;&gt;config</title>
<path fill="none" stroke="black" d="M537.15,-80.31C592.31,-80.65 680.91,-81.2 742.11,-81.58"/>
<polygon fill="black" stroke="black" points="742.04,-85.08 752.07,-81.64 742.09,-78.08 742.04,-85.08"/>
<text text-anchor="middle" x="641.75" y="-85.41" font-family="Times,serif" font-size="14.00">.ptotosettings</text>
</g>
<!-- runtime -->
<g id="node4" class="node">
<title>runtime</title>
<path fill="#f6f6f6" stroke="black" d="M863.25,-36C863.25,-36 758.75,-36 758.75,-36 752.75,-36 746.75,-30 746.75,-24 746.75,-24 746.75,-12 746.75,-12 746.75,-6 752.75,0 758.75,0 758.75,0 863.25,0 863.25,0 869.25,0 875.25,-6 875.25,-12 875.25,-12 875.25,-24 875.25,-24 875.25,-30 869.25,-36 863.25,-36"/>
<text text-anchor="middle" x="811" y="-13.32" font-family="Times,serif" font-size="14.00">pysnap.runtime</text>
</g>
<!-- core&#45;&gt;runtime -->
<g id="edge4" class="edge">
<title>core&#45;&gt;runtime</title>
<path fill="none" stroke="black" d="M537,-63.4C542.95,-61.7 548.96,-60.11 554.75,-58.75 614.76,-44.68 683.86,-33.97 735.02,-27.08"/>
<polygon fill="black" stroke="black" points="735.35,-30.56 744.8,-25.78 734.43,-23.62 735.35,-30.56"/>
<text text-anchor="middle" x="641.75" y="-62.7" font-family="Times,serif" font-size="14.00">session registry</text>
</g>
<!-- vbox -->
<g id="node6" class="node">
<title>vbox</title>
<path fill="#f6f6f6" stroke="black" d="M851.62,-154C851.62,-154 770.38,-154 770.38,-154 764.38,-154 758.38,-148 758.38,-142 758.38,-142 758.38,-130 758.38,-130 758.38,-124 764.38,-118 770.38,-118 770.38,-118 851.62,-118 851.62,-118 857.62,-118 863.62,-124 863.62,-130 863.62,-130 863.62,-142 863.62,-142 863.62,-148 857.62,-154 851.62,-154"/>
<text text-anchor="middle" x="811" y="-131.32" font-family="Times,serif" font-size="14.00">pysnap.vbox</text>
</g>
<!-- core&#45;&gt;vbox -->
<g id="edge5" class="edge">
<title>core&#45;&gt;vbox</title>
<path fill="none" stroke="black" d="M536.9,-98.21C542.87,-100 548.91,-101.65 554.75,-103 619.31,-117.92 694.72,-126.63 746.75,-131.31"/>
<polygon fill="black" stroke="black" points="746.36,-134.79 756.63,-132.18 746.97,-127.82 746.36,-134.79"/>
<text text-anchor="middle" x="641.75" y="-133.11" font-family="Times,serif" font-size="14.00">VBoxManage operations</text>
</g>
<!-- terminal&#45;&gt;core -->
<g id="edge6" class="edge">
<title>terminal&#45;&gt;core</title>
<path fill="none" stroke="black" d="M313.11,-30.28C344.8,-33.49 383.11,-39.08 416.5,-48.75 424.06,-50.94 431.85,-53.84 439.34,-56.99"/>
<polygon fill="black" stroke="black" points="437.73,-60.11 448.29,-60.96 440.57,-53.71 437.73,-60.11"/>
<text text-anchor="middle" x="374.12" y="-52.7" font-family="Times,serif" font-size="14.00">prepare VM</text>
</g>
<!-- terminal&#45;&gt;runtime -->
<g id="edge7" class="edge">
<title>terminal&#45;&gt;runtime</title>
<path fill="none" stroke="black" d="M313.24,-25.07C418.46,-23.57 624.32,-20.64 735.13,-19.07"/>
<polygon fill="black" stroke="black" points="735.07,-22.57 745.02,-18.92 734.97,-15.57 735.07,-22.57"/>
<text text-anchor="middle" x="485.62" y="-27.26" font-family="Times,serif" font-size="14.00">live session</text>
</g>
</g>
</svg>
